<svg xmlns="http://www.w3.org/2000/svg" xmlns:xlink="http://www.w3.org/1999/xlink" viewBox="0 0 145.11 160.09"><defs><style>.cls-1{fill:none;}.cls-2{isolation:isolate;}.cls-3{fill:url(#linear-gradient);}.cls-14,.cls-17,.cls-4,.cls-7,.cls-9{mix-blend-mode:multiply;}.cls-4{fill:url(#linear-gradient-2);}.cls-5{fill:#1b63cc;}.cls-6{clip-path:url(#clip-path);}.cls-7{opacity:0.5;fill:url(#linear-gradient-3);}.cls-8{fill:#c78e65;}.cls-9{fill:#e8d5ba;opacity:0.3;}.cls-10{fill:url(#linear-gradient-4);}.cls-11{fill:url(#linear-gradient-5);}.cls-12{fill:url(#linear-gradient-6);}.cls-13{fill:url(#linear-gradient-7);}.cls-14{fill:url(#linear-gradient-8);}.cls-15{fill:#3d210f;}.cls-16{fill:#fff;}.cls-17{fill:url(#linear-gradient-9);}</style><linearGradient id="linear-gradient" x1="90.14" y1="240.88" x2="90.14" y2="124.93" gradientUnits="userSpaceOnUse"><stop offset="0" stop-color="#7aba93"/><stop offset="1" stop-color="#9ee0ae"/></linearGradient><linearGradient id="linear-gradient-2" x1="90.13" y1="232.19" x2="90.14" y2="232.19" xlink:href="#linear-gradient"/><clipPath id="clip-path" transform="translate(-17.62 -100.74)"><path class="cls-1" d="M90.23,101.5H88.78a71.07,71.07,0,0,0-71.07,71.06V174A71.79,71.79,0,0,0,89.5,245.8H91A71.79,71.79,0,0,0,162.74,174h0A72.52,72.52,0,0,0,90.23,101.5Z"/></clipPath><linearGradient id="linear-gradient-3" x1="100.48" y1="284.42" x2="100.48" y2="-5.79" xlink:href="#linear-gradient"/><linearGradient id="linear-gradient-4" x1="90.23" y1="216.67" x2="90.23" y2="252.41" gradientUnits="userSpaceOnUse"><stop offset="0" stop-color="#c3e1eb"/><stop offset="1" stop-color="#afc8de"/></linearGradient><linearGradient id="linear-gradient-5" x1="72.6" y1="114.9" x2="72.6" y2="155.59" gradientUnits="userSpaceOnUse"><stop offset="0" stop-color="#3b3b3b"/><stop offset="1" stop-color="#121212"/></linearGradient><linearGradient id="linear-gradient-6" x1="65.28" y1="99.67" x2="65.28" y2="117.21" gradientUnits="userSpaceOnUse"><stop offset="0" stop-color="#b9c3cb"/><stop offset="1" stop-color="#fff"/></linearGradient><linearGradient id="linear-gradient-7" x1="79.93" y1="99.67" x2="79.93" y2="117.21" xlink:href="#linear-gradient-6"/><linearGradient id="linear-gradient-8" x1="83.41" y1="144.07" x2="101.62" y2="144.07" xlink:href="#linear-gradient-4"/><linearGradient id="linear-gradient-9" x1="88.51" y1="180.35" x2="88.51" y2="154.44" gradientUnits="userSpaceOnUse"><stop offset="0" stop-color="#e8d5ba"/><stop offset="1" stop-color="#fff"/></linearGradient></defs><g class="cls-2"><g id="OBJECTS"><path class="cls-3" d="M90.14,100.74H88.69A71.07,71.07,0,0,0,17.62,171.8v1.45A71.79,71.79,0,0,0,89.41,245h1.45a71.79,71.79,0,0,0,71.79-71.79h0A72.51,72.51,0,0,0,90.14,100.74Z" transform="translate(-17.62 -100.74)"/><path class="cls-4" d="M90.13,232.18v0h0Z" transform="translate(-17.62 -100.74)"/><path class="cls-5" d="M90.23,101.5H88.78a71.07,71.07,0,0,0-71.07,71.06V174A71.79,71.79,0,0,0,89.5,245.8H91A71.79,71.79,0,0,0,162.74,174h0A72.52,72.52,0,0,0,90.23,101.5Z" transform="translate(-17.62 -100.74)"/><g class="cls-6"><path class="cls-7" d="M140.12,223.45c-3.25-3.38-25.25-6.6-25.26-6.6l.26-.59-2.89-2.94-.18.07V202.88c4.32-1.92,8.19-4.24,9.35-5.71,1.65-2.11,4.74-7.95,6.59-16.82l.21.05c3.3.45,6.39-3.06,6.88-7.84s-1.75-9-5-9.47v-14.9c0-.58,0-1.14-.08-1.69,3.54-2.87,5.08-7.55,3.14-14.88,0,0-8,5.81-21.29-7.19-11.32-11-33.4.53-33.84,8a20.12,20.12,0,0,0-7.36,15.75v14.9a5.61,5.61,0,0,1,.84,0,2.85,2.85,0,0,0-.5,0c-3.3.45-5.58,4.7-5.09,9.48s3.58,8.29,6.89,7.84l.21-.05c1.84,8.87,4.93,14.71,6.59,16.82,1.15,1.47,5,3.79,9.34,5.71v10.51l-.17-.07-2.9,2.94.27.59h0s-22,3.21-25.25,6.6c-2.83,3-8.72,31.18-10.08,37.38h99.43C148.83,254.63,143,226.4,140.12,223.45Zm-10.51-60.4h0Z" transform="translate(-17.62 -100.74)"/><rect class="cls-8" x="61.03" y="96.23" width="23.15" height="25.38"/><path class="cls-9" d="M101.8,197H78.65v5.26c4.13,1.84,8.66,3.31,11.58,3.31h0c2.91,0,7.44-1.47,11.57-3.31Z" transform="translate(-17.62 -100.74)"/><path class="cls-10" d="M129.87,218.7c-3.25-3.39-25.26-6.6-25.26-6.6l-14.38,1.19L75.84,212.1s-22,3.21-25.25,6.6c-2.83,3-8.72,31.18-10.08,37.38h99.43C138.58,249.88,132.7,221.65,129.87,218.7Z" transform="translate(-17.62 -100.74)"/><polygon class="cls-11" points="77.03 155.34 74.25 118.8 76.56 116.5 72.6 112.55 68.65 116.5 70.95 118.8 68.18 155.34 77.03 155.34"/><path class="cls-8" d="M124.83,167.81c.5-4.78-1.78-9-5.09-9.48s-6.39,3-6.88,7.84,1.78,9,5.09,9.48S124.34,172.59,124.83,167.81Z" transform="translate(-17.62 -100.74)"/><path class="cls-8" d="M55.62,167.81c-.49-4.78,1.79-9,5.09-9.48s6.39,3,6.89,7.84-1.78,9-5.09,9.48S56.12,172.59,55.62,167.81Z" transform="translate(-17.62 -100.74)"/><path class="cls-8" d="M90.23,124.34h0c-11.24,0-29,6.39-29,36.33,0,17.29,5.64,28.61,8.1,31.75,2.26,2.88,15,9,20.92,9h0c6,0,18.66-6.14,20.92-9,2.45-3.14,8.09-14.46,8.09-31.75C119.24,130.73,101.47,124.34,90.23,124.34Z" transform="translate(-17.62 -100.74)"/><polygon class="cls-12" points="72.6 112.55 60.85 107.83 57.96 110.77 63.8 123.73 72.6 112.55"/><polygon class="cls-13" points="72.6 112.55 84.35 107.83 87.25 110.77 81.4 123.73 72.6 112.55"/><rect class="cls-14" x="83.41" y="142.46" width="18.21" height="3.23"/><path class="cls-15" d="M65.08,168.33h2s-1.22-7.79,2.36-10.31v-5s-1.38-.16-1.38-6.09,7.06-10.15,22.17-10.15V118.55s-29.86,3.22-29.86,24.89v14.9a5,5,0,0,1,3.73.93C65.78,160.67,65.08,168.33,65.08,168.33Z" transform="translate(-17.62 -100.74)"/><path class="cls-15" d="M115.09,168.33h-2s1.22-7.79-2.36-10.31v-5s1.39-.16,1.39-6.09-7.07-10.15-22.18-10.15V118.55s29.86,6.61,29.86,24.89v14.9a5,5,0,0,0-3.73.93C114.39,160.67,115.09,168.33,115.09,168.33Z" transform="translate(-17.62 -100.74)"/><path class="cls-16" d="M90.23,188.54c5.24,0,9.48-1.73,9.48-3.86h-19C80.74,186.81,85,188.54,90.23,188.54Z" transform="translate(-17.62 -100.74)"/><path class="cls-15" d="M82,162.74c0,1.61-.9,2.92-2,2.92s-2-1.31-2-2.92.9-2.93,2-2.93S82,161.12,82,162.74Z" transform="translate(-17.62 -100.74)"/><path class="cls-15" d="M86.3,156.12c0,.4-2.84.73-6.34.73s-6.34-.33-6.34-.73,2.84-.73,6.34-.73S86.3,155.71,86.3,156.12Z" transform="translate(-17.62 -100.74)"/><path class="cls-15" d="M98.42,162.74c0,1.61.9,2.92,2,2.92s2-1.31,2-2.92-.9-2.93-2-2.93S98.42,161.12,98.42,162.74Z" transform="translate(-17.62 -100.74)"/><path class="cls-15" d="M94.09,156.12c0,.4,2.84.73,6.34.73s6.34-.33,6.34-.73-2.84-.73-6.34-.73S94.09,155.71,94.09,156.12Z" transform="translate(-17.62 -100.74)"/><path class="cls-15" d="M71.18,139.79s60.33,19.74,51.68-12.92c0,0-8,5.81-21.29-7.19S60,125,69.72,131.13Z" transform="translate(-17.62 -100.74)"/><path class="cls-17" d="M90.91,165.66s-2,6.84-5.11,10.72a7.88,7.88,0,0,0,5.41,1.87,13.92,13.92,0,0,1-3.27-1.91C88.65,174.66,90.91,170.65,90.91,165.66Z" transform="translate(-17.62 -100.74)"/></g></g></g></svg>