<svg xmlns="http://www.w3.org/2000/svg" xmlns:xlink="http://www.w3.org/1999/xlink" viewBox="0 0 145.02 157.06"><defs><style>.cls-1{fill:none;}.cls-2{isolation:isolate;}.cls-3{fill:#d85bd0;}.cls-4{clip-path:url(#clip-path);}.cls-10,.cls-11,.cls-17,.cls-5,.cls-9{mix-blend-mode:multiply;}.cls-5{opacity:0.5;fill:url(#linear-gradient);}.cls-6{fill:url(#linear-gradient-2);}.cls-7{fill:url(#linear-gradient-3);}.cls-11,.cls-8{fill:#916f5e;}.cls-9{fill:url(#linear-gradient-4);}.cls-10{fill:#e8d5ba;opacity:0.3;}.cls-12{fill:#fff;}.cls-13{fill:url(#linear-gradient-5);}.cls-14{fill:url(#linear-gradient-6);}.cls-15{fill:url(#linear-gradient-7);}.cls-16{fill:#3f201a;}.cls-17{fill:url(#linear-gradient-8);}</style><clipPath id="clip-path" transform="translate(-177.49 -100.74)"><path class="cls-1" d="M250,100.74h-1.45a71.06,71.06,0,0,0-71.06,71.06v1.45A71.79,71.79,0,0,0,249.27,245h1.46a71.79,71.79,0,0,0,71.78-71.79h0A72.51,72.51,0,0,0,250,100.74Z"/></clipPath><linearGradient id="linear-gradient" x1="260.5" y1="281.49" x2="260.5" y2="-9.96" gradientUnits="userSpaceOnUse"><stop offset="0" stop-color="#aec058"/><stop offset="1" stop-color="#cfdb69"/></linearGradient><linearGradient id="linear-gradient-2" x1="250.21" y1="116.25" x2="250.21" y2="203.69" gradientUnits="userSpaceOnUse"><stop offset="0" stop-color="#3f201a"/><stop offset="1" stop-color="#52342c"/></linearGradient><linearGradient id="linear-gradient-3" x1="250.15" y1="107.05" x2="250.15" y2="171.72" xlink:href="#linear-gradient-2"/><linearGradient id="linear-gradient-4" x1="250" y1="251.44" x2="250" y2="199.62" gradientUnits="userSpaceOnUse"><stop offset="0" stop-color="#e8d5ba"/><stop offset="0.01" stop-color="#e9d6bc"/><stop offset="0.13" stop-color="#f1e5d5"/><stop offset="0.26" stop-color="#f7f1e7"/><stop offset="0.42" stop-color="#fcf9f5"/><stop offset="0.62" stop-color="#fefefd"/><stop offset="1" stop-color="#fff"/></linearGradient><linearGradient id="linear-gradient-5" x1="250.06" y1="207.74" x2="250.06" y2="249.47" gradientUnits="userSpaceOnUse"><stop offset="0" stop-color="#3b3b3b"/><stop offset="1" stop-color="#121212"/></linearGradient><linearGradient id="linear-gradient-6" x1="241.57" y1="159.27" x2="241.57" y2="121.27" xlink:href="#linear-gradient-2"/><linearGradient id="linear-gradient-7" x1="270.62" y1="154.06" x2="270.62" y2="131.17" xlink:href="#linear-gradient-2"/><linearGradient id="linear-gradient-8" x1="247.4" y1="177.83" x2="247.4" y2="151.91" gradientUnits="userSpaceOnUse"><stop offset="0" stop-color="#e8d5ba"/><stop offset="1" stop-color="#fff"/></linearGradient></defs><g class="cls-2"><g id="OBJECTS"><path class="cls-3" d="M250,100.74h-1.45a71.06,71.06,0,0,0-71.06,71.06v1.45A71.79,71.79,0,0,0,249.27,245h1.46a71.79,71.79,0,0,0,71.78-71.79h0A72.51,72.51,0,0,0,250,100.74Z" transform="translate(-177.49 -100.74)"/><g class="cls-4"><path class="cls-5" d="M295,224c-2.4-3.74-9.54-7.42-15.25-9.89l0-.07c-1.93-1-4.46-1.76-7.53-2.94v-.44h10A14.5,14.5,0,0,0,295.55,202c8.66-20.05-1.44-60.18-1.44-60.18l-.07,0a34.6,34.6,0,0,0-67.61,3.92c-2.26,10.54-7.58,40-.55,56.29a14.49,14.49,0,0,0,13.35,8.61h9.84V211s-1.43.49-3.6,1.32a35.4,35.4,0,0,0-4.09,1.68h0c-5.74,2.48-13,6.19-15.41,10-3.5,10.45-4.46,33.85-4.46,33.85h78S298.53,234.4,295,224Z" transform="translate(-177.49 -100.74)"/><path class="cls-6" d="M283.61,136.32l-8.05-3.85-30.33,2.3-20.37-2.3-8,3.85s-10.11,40.13-1.44,60.18a14.49,14.49,0,0,0,13.35,8.61h43a14.5,14.5,0,0,0,13.35-8.61C293.71,176.45,283.61,136.32,283.61,136.32Z" transform="translate(-177.49 -100.74)"/><path class="cls-7" d="M284.74,145.34a34.6,34.6,0,1,0-34.59,34.6A34.59,34.59,0,0,0,284.74,145.34Z" transform="translate(-177.49 -100.74)"/><path class="cls-8" d="M284.53,218.45c-3.91-6.11-20.44-12-22.81-12.86V194H238.57v11.45s-18.88,6.38-23.1,13C212,228.9,211,252.3,211,252.3h78S288,228.9,284.53,218.45Z" transform="translate(-177.49 -100.74)"/><path class="cls-9" d="M284.53,218.45c-3.91-6.11-20.44-12-22.81-12.86V194H238.57v11.45s-18.88,6.38-23.1,13C212,228.9,211,252.3,211,252.3h78S288,228.9,284.53,218.45Z" transform="translate(-177.49 -100.74)"/><path class="cls-10" d="M250.1,204.89h.05c3.07,0,7.59-2.51,11.57-5.28V194H238.57v5.64c4,2.74,8.44,5.16,11.49,5.21h0Z" transform="translate(-177.49 -100.74)"/><path class="cls-8" d="M215.54,167.16c-.49-4.78,1.79-9,5.09-9.48s6.39,3.06,6.89,7.84-1.79,9-5.09,9.48S216,172,215.54,167.16Z" transform="translate(-177.49 -100.74)"/><path class="cls-11" d="M215.54,167.16c-.49-4.78,1.79-9,5.09-9.48s6.39,3.06,6.89,7.84-1.79,9-5.09,9.48S216,172,215.54,167.16Z" transform="translate(-177.49 -100.74)"/><path class="cls-8" d="M284.75,167.16c.5-4.78-1.78-9-5.09-9.48s-6.39,3.06-6.88,7.84,1.78,9,5.09,9.48S284.26,172,284.75,167.16Z" transform="translate(-177.49 -100.74)"/><path class="cls-11" d="M284.75,167.16c.5-4.78-1.78-9-5.09-9.48s-6.39,3.06-6.88,7.84,1.78,9,5.09,9.48S284.26,172,284.75,167.16Z" transform="translate(-177.49 -100.74)"/><path class="cls-8" d="M250.15,123.7h-.09c-11.25,0-28.93,6.46-28.93,36.32,0,17.29,6.74,25.44,9.2,28.57,2.25,2.87,13.74,12.11,19.73,12.2h.09c6-.09,17.48-9.33,19.72-12.2,2.46-3.13,9.2-11.28,9.2-28.57C279.07,130.16,261.39,123.73,250.15,123.7Z" transform="translate(-177.49 -100.74)"/><path class="cls-12" d="M250.15,190.25c4.38,0,7.93-2.69,7.93-6H242.21C242.21,187.56,245.77,190.25,250.15,190.25Z" transform="translate(-177.49 -100.74)"/><path class="cls-13" d="M269.25,208.49c-2-1-4.55-1.78-7.69-3C258.44,219.13,250,239.94,250,239.94s-8.31-20.81-11.43-34.45c-3.15,1.22-5.72,2-7.69,3-9.35,19.68-9.75,43.81-9.75,43.81H279S278.6,228.17,269.25,208.49Z" transform="translate(-177.49 -100.74)"/><path class="cls-14" d="M248.51,115.08c-20.54,0-26.78,18-26.78,26.28-7.45,10.35-.2,26.72,6.42,26.72v-9c0-6.69,6.37-12.89,15.93-11.86,8.57.93,14-3.92,18.52-12.15C268.23,124.1,261.2,115.08,248.51,115.08Z" transform="translate(-177.49 -100.74)"/><path class="cls-15" d="M261.72,131.74s4.21,19.44,17.35,25.9c3.68-6.34,3.09-16.06.59-23-3.37-9.36-20.1-16.47-20.1-16.47Z" transform="translate(-177.49 -100.74)"/><path class="cls-16" d="M242,159c0,1.62-.9,2.93-2,2.93s-2-1.31-2-2.93.9-2.92,2-2.92S242,157.34,242,159Z" transform="translate(-177.49 -100.74)"/><path class="cls-16" d="M246.31,152.34c0,.4-2.83.73-6.33.73s-6.34-.33-6.34-.73,2.84-.73,6.34-.73S246.31,151.93,246.31,152.34Z" transform="translate(-177.49 -100.74)"/><path class="cls-16" d="M258.11,159c0,1.62.9,2.93,2,2.93s2-1.31,2-2.93-.9-2.92-2-2.92S258.11,157.34,258.11,159Z" transform="translate(-177.49 -100.74)"/><path class="cls-16" d="M258.11,158.92c0,1.62.85,3,2,3s2-1.27,2.07-2.88-.85-2.95-2-3S258.14,157.31,258.11,158.92Z" transform="translate(-177.49 -100.74)"/><path class="cls-16" d="M253.79,152.34c0,.4,2.83.73,6.33.73s6.34-.33,6.34-.73-2.84-.73-6.34-.73S253.79,151.93,253.79,152.34Z" transform="translate(-177.49 -100.74)"/><path class="cls-17" d="M249.79,163.13s-1.95,6.84-5.1,10.72a7.88,7.88,0,0,0,5.41,1.87,13.93,13.93,0,0,1-3.28-1.91C247.53,172.13,249.79,168.12,249.79,163.13Z" transform="translate(-177.49 -100.74)"/></g></g></g></svg>