<svg xmlns="http://www.w3.org/2000/svg" xmlns:xlink="http://www.w3.org/1999/xlink" viewBox="0 0 145.02 159.33"><defs><style>.cls-1{fill:none;}.cls-2{isolation:isolate;}.cls-3{fill:url(#linear-gradient);}.cls-4{clip-path:url(#clip-path);}.cls-15,.cls-24,.cls-5,.cls-7{mix-blend-mode:multiply;}.cls-5{opacity:0.5;fill:url(#linear-gradient-2);}.cls-6{fill:url(#linear-gradient-3);}.cls-7{fill:#e8d5ba;opacity:0.3;}.cls-8{fill:url(#linear-gradient-4);}.cls-9{fill:url(#linear-gradient-5);}.cls-10{fill:url(#linear-gradient-6);}.cls-11{fill:url(#linear-gradient-7);}.cls-12{fill:url(#linear-gradient-8);}.cls-13{fill:url(#linear-gradient-9);}.cls-14{fill:url(#linear-gradient-10);}.cls-15{fill:url(#linear-gradient-11);}.cls-16{fill:url(#linear-gradient-12);}.cls-17{fill:url(#linear-gradient-13);}.cls-18{fill:#fff;}.cls-19{fill:url(#linear-gradient-14);}.cls-20{fill:url(#linear-gradient-15);}.cls-21{fill:url(#linear-gradient-16);}.cls-22{fill:url(#linear-gradient-17);}.cls-23{fill:url(#linear-gradient-18);}.cls-24{fill:url(#linear-gradient-19);}</style><linearGradient id="linear-gradient" x1="250" y1="414.94" x2="250" y2="298.99" gradientUnits="userSpaceOnUse"><stop offset="0" stop-color="#7aba93"/><stop offset="1" stop-color="#9ee0ae"/></linearGradient><clipPath id="clip-path" transform="translate(-177.49 -274.8)"><path class="cls-1" d="M250,274.8h-1.45a71.06,71.06,0,0,0-71.06,71.06v1.45a71.79,71.79,0,0,0,71.78,71.79h1.46a71.79,71.79,0,0,0,71.78-71.79h0A72.51,72.51,0,0,0,250,274.8Z"/></clipPath><linearGradient id="linear-gradient-2" x1="260.25" y1="457.72" x2="260.25" y2="167.51" xlink:href="#linear-gradient"/><linearGradient id="linear-gradient-3" x1="72.51" y1="95.37" x2="72.51" y2="110.82" gradientUnits="userSpaceOnUse"><stop offset="0" stop-color="#e8cba7"/><stop offset="1" stop-color="#f1dcc0"/></linearGradient><linearGradient id="linear-gradient-4" x1="250" y1="389.97" x2="250" y2="425.71" gradientUnits="userSpaceOnUse"><stop offset="0" stop-color="#c3e1eb"/><stop offset="1" stop-color="#afc8de"/></linearGradient><linearGradient id="linear-gradient-5" x1="72.51" y1="114.13" x2="72.51" y2="154.82" gradientUnits="userSpaceOnUse"><stop offset="0" stop-color="#3b3b3b"/><stop offset="1" stop-color="#121212"/></linearGradient><linearGradient id="linear-gradient-6" x1="278.62" y1="305.19" x2="278.62" y2="356.15" xlink:href="#linear-gradient-3"/><linearGradient id="linear-gradient-7" x1="221.38" y1="305.19" x2="221.38" y2="356.15" xlink:href="#linear-gradient-3"/><linearGradient id="linear-gradient-8" x1="250" y1="305.19" x2="250" y2="356.15" xlink:href="#linear-gradient-3"/><linearGradient id="linear-gradient-9" x1="65.19" y1="98.9" x2="65.19" y2="116.45" gradientUnits="userSpaceOnUse"><stop offset="0" stop-color="#b9c3cb"/><stop offset="1" stop-color="#fff"/></linearGradient><linearGradient id="linear-gradient-10" x1="79.84" y1="98.9" x2="79.84" y2="116.45" xlink:href="#linear-gradient-9"/><linearGradient id="linear-gradient-11" x1="83.32" y1="143.31" x2="101.53" y2="143.31" xlink:href="#linear-gradient-4"/><linearGradient id="linear-gradient-12" x1="235.07" y1="335.15" x2="235.07" y2="307.39" gradientUnits="userSpaceOnUse"><stop offset="0" stop-color="#b36831"/><stop offset="1" stop-color="#a25024"/></linearGradient><linearGradient id="linear-gradient-13" x1="264.65" y1="335.15" x2="264.65" y2="307.39" xlink:href="#linear-gradient-12"/><linearGradient id="linear-gradient-14" x1="237.71" y1="336.04" x2="241.75" y2="336.04" xlink:href="#linear-gradient-12"/><linearGradient id="linear-gradient-15" x1="233.39" y1="329.42" x2="246.07" y2="329.42" xlink:href="#linear-gradient-12"/><linearGradient id="linear-gradient-16" x1="258.19" y1="336.04" x2="262.22" y2="336.04" xlink:href="#linear-gradient-12"/><linearGradient id="linear-gradient-17" x1="253.87" y1="329.42" x2="266.54" y2="329.42" xlink:href="#linear-gradient-12"/><linearGradient id="linear-gradient-18" x1="249.47" y1="291.34" x2="260.88" y2="315.16" xlink:href="#linear-gradient-12"/><linearGradient id="linear-gradient-19" x1="248.28" y1="353.65" x2="248.28" y2="327.74" gradientUnits="userSpaceOnUse"><stop offset="0" stop-color="#e8d5ba"/><stop offset="1" stop-color="#fff"/></linearGradient></defs><g class="cls-2"><g id="OBJECTS"><path class="cls-3" d="M250,274.8h-1.45a71.06,71.06,0,0,0-71.06,71.06v1.45a71.79,71.79,0,0,0,71.78,71.79h1.46a71.79,71.79,0,0,0,71.78-71.79h0A72.51,72.51,0,0,0,250,274.8Z" transform="translate(-177.49 -274.8)"/><g class="cls-4"><path class="cls-5" d="M299.89,396.75c-3.25-3.39-25.25-6.6-25.26-6.61l.27-.58-2.9-2.94-.17.07V376.18c4.31-1.92,8.19-4.24,9.34-5.72,1.66-2.11,4.75-7.95,6.59-16.81l.21.05c3.31.45,6.39-3.06,6.88-7.84s-1.75-9-5-9.47v-14.9a15.53,15.53,0,0,0-.09-1.69c3.54-2.87,5.08-7.56,3.14-14.88,0,0-8,5.8-21.29-7.19-11.31-11-33.4.53-33.83,8a20.11,20.11,0,0,0-7.37,15.75v14.9a6.38,6.38,0,0,1,.84-.05c-.16,0-.33,0-.49,0-3.31.46-5.59,4.7-5.09,9.49s3.57,8.29,6.88,7.84l.21-.05c1.84,8.86,4.93,14.7,6.59,16.81,1.15,1.48,5,3.8,9.35,5.72v10.51l-.18-.07-2.9,2.94.27.58h0s-22,3.22-25.26,6.61c-2.83,2.95-8.72,31.18-10.08,37.38H310C308.61,427.93,302.72,399.7,299.89,396.75Zm-10.51-60.4h0Z" transform="translate(-177.49 -274.8)"/><rect class="cls-6" x="60.94" y="95.47" width="23.15" height="25.38"/><path class="cls-7" d="M261.58,370.27H238.43v5.25c4.13,1.84,8.65,3.31,11.57,3.31h0c2.92,0,7.44-1.47,11.58-3.31Z" transform="translate(-177.49 -274.8)"/><path class="cls-8" d="M289.64,392c-3.25-3.39-25.26-6.61-25.26-6.61L250,386.59l-14.38-1.2s-22,3.22-25.26,6.61c-2.83,2.95-8.72,31.18-10.08,37.38h99.44C298.36,423.18,292.47,395,289.64,392Z" transform="translate(-177.49 -274.8)"/><polygon class="cls-9" points="76.94 154.58 74.16 118.03 76.46 115.73 72.51 111.78 68.56 115.73 70.86 118.03 68.09 154.58 76.94 154.58"/><path class="cls-10" d="M284.6,341.11c.5-4.79-1.78-9-5.09-9.49s-6.39,3.06-6.88,7.85,1.78,9,5.09,9.48S284.11,345.89,284.6,341.11Z" transform="translate(-177.49 -274.8)"/><path class="cls-11" d="M215.4,341.11c-.5-4.79,1.78-9,5.09-9.49s6.39,3.06,6.88,7.85-1.78,9-5.09,9.48S215.89,345.89,215.4,341.11Z" transform="translate(-177.49 -274.8)"/><path class="cls-12" d="M250,297.64h0c-11.24,0-29,6.39-29,36.33,0,17.29,5.63,28.61,8.09,31.74,2.26,2.89,15,9,20.92,9h0c6,0,18.66-6.14,20.92-9,2.46-3.13,8.09-14.45,8.09-31.74C279,304,261.24,297.64,250,297.64Z" transform="translate(-177.49 -274.8)"/><polygon class="cls-13" points="72.51 111.79 60.76 107.06 57.87 110 63.71 122.97 72.51 111.79"/><polygon class="cls-14" points="72.51 111.79 84.26 107.06 87.16 110 81.31 122.97 72.51 111.79"/><rect class="cls-15" x="83.32" y="141.69" width="18.21" height="3.23"/><path class="cls-16" d="M224.85,341.63h2s-1.21-7.79,2.36-10.31v-5s-1.38-.16-1.38-6.09S234.89,310,250,310V291.85s-29.86,3.22-29.86,24.89v14.9a5.07,5.07,0,0,1,3.74.92C225.55,334,224.85,341.63,224.85,341.63Z" transform="translate(-177.49 -274.8)"/><path class="cls-17" d="M274.87,341.63h-2s1.22-7.79-2.35-10.31v-5s1.38-.16,1.38-6.09S264.82,310,249.72,310V291.85s29.86,6.61,29.86,24.89v14.9a5.07,5.07,0,0,0-3.74.92C274.16,334,274.87,341.63,274.87,341.63Z" transform="translate(-177.49 -274.8)"/><path class="cls-18" d="M250,361.84c5.24,0,9.49-1.73,9.49-3.86h-19C240.52,360.11,244.76,361.84,250,361.84Z" transform="translate(-177.49 -274.8)"/><path class="cls-19" d="M241.75,336c0,1.61-.91,2.92-2,2.92s-2-1.31-2-2.92.91-2.93,2-2.93S241.75,334.42,241.75,336Z" transform="translate(-177.49 -274.8)"/><path class="cls-20" d="M246.07,329.42c0,.4-2.84.73-6.34.73s-6.34-.33-6.34-.73,2.84-.74,6.34-.74S246.07,329,246.07,329.42Z" transform="translate(-177.49 -274.8)"/><path class="cls-21" d="M258.19,336c0,1.61.9,2.92,2,2.92s2-1.31,2-2.92-.9-2.93-2-2.93S258.19,334.42,258.19,336Z" transform="translate(-177.49 -274.8)"/><path class="cls-22" d="M253.87,329.42c0,.4,2.84.73,6.34.73s6.33-.33,6.33-.73-2.83-.74-6.33-.74S253.87,329,253.87,329.42Z" transform="translate(-177.49 -274.8)"/><path class="cls-23" d="M231,313.08s60.32,19.75,51.67-12.91c0,0-8,5.8-21.29-7.19s-41.6,5.36-31.85,11.45Z" transform="translate(-177.49 -274.8)"/><path class="cls-24" d="M250.68,339s-2,6.83-5.1,10.72a7.88,7.88,0,0,0,5.41,1.87,13.93,13.93,0,0,1-3.28-1.91C248.42,348,250.68,344,250.68,339Z" transform="translate(-177.49 -274.8)"/></g></g></g></svg>