<svg xmlns="http://www.w3.org/2000/svg" xmlns:xlink="http://www.w3.org/1999/xlink" viewBox="0 0 145.02 158.83"><defs><style>.cls-1{fill:none;}.cls-2{isolation:isolate;}.cls-3{fill:#efd65b;}.cls-4{clip-path:url(#clip-path);}.cls-22,.cls-5,.cls-7{mix-blend-mode:multiply;}.cls-5{opacity:0.5;fill:url(#linear-gradient);}.cls-6{fill:#e0ac80;}.cls-7{fill:#e8d5ba;opacity:0.3;}.cls-8{fill:url(#linear-gradient-2);}.cls-9{fill:url(#linear-gradient-3);}.cls-10{fill:url(#linear-gradient-4);}.cls-11{fill:url(#linear-gradient-5);}.cls-12{fill:url(#linear-gradient-6);}.cls-13{fill:url(#linear-gradient-7);}.cls-14{fill:url(#linear-gradient-8);}.cls-15{fill:#fff;}.cls-16{fill:url(#linear-gradient-9);}.cls-17{fill:url(#linear-gradient-10);}.cls-18{fill:url(#linear-gradient-11);}.cls-19{fill:url(#linear-gradient-12);}.cls-20{fill:url(#linear-gradient-13);}.cls-21{fill:url(#linear-gradient-14);}.cls-22{fill:url(#linear-gradient-15);}</style><clipPath id="clip-path" transform="translate(-17.62 -274.8)"><path class="cls-1" d="M90.14,274.8H88.69a71.07,71.07,0,0,0-71.07,71.06v1.45A71.79,71.79,0,0,0,89.41,419.1h1.45a71.79,71.79,0,0,0,71.79-71.79h0A72.52,72.52,0,0,0,90.14,274.8Z"/></clipPath><linearGradient id="linear-gradient" x1="98.39" y1="456.86" x2="98.39" y2="171.07" gradientUnits="userSpaceOnUse"><stop offset="0" stop-color="#aec058"/><stop offset="1" stop-color="#cfdb69"/></linearGradient><linearGradient id="linear-gradient-2" x1="58.79" y1="326.31" x2="73.53" y2="326.31" gradientUnits="userSpaceOnUse"><stop offset="0" stop-color="#735437"/><stop offset="1" stop-color="#5b391d"/></linearGradient><linearGradient id="linear-gradient-3" x1="93.46" y1="292.19" x2="121.71" y2="335.84" xlink:href="#linear-gradient-2"/><linearGradient id="linear-gradient-4" x1="90.14" y1="383.23" x2="90.14" y2="432.01" gradientUnits="userSpaceOnUse"><stop offset="0" stop-color="#3b3b3b"/><stop offset="1" stop-color="#121212"/></linearGradient><linearGradient id="linear-gradient-5" x1="72.51" y1="113.28" x2="72.51" y2="145.67" gradientUnits="userSpaceOnUse"><stop offset="0" stop-color="#b9c3cb"/><stop offset="1" stop-color="#fff"/></linearGradient><linearGradient id="linear-gradient-6" x1="72.51" y1="112.49" x2="72.51" y2="142.36" gradientUnits="userSpaceOnUse"><stop offset="0" stop-color="#ca2228"/><stop offset="1" stop-color="#9e151b"/></linearGradient><linearGradient id="linear-gradient-7" x1="79.03" y1="422.89" x2="79.03" y2="393.16" gradientUnits="userSpaceOnUse"><stop offset="0" stop-color="#3b3b3b"/><stop offset="1" stop-color="#3e424d"/></linearGradient><linearGradient id="linear-gradient-8" x1="101.24" y1="422.89" x2="101.24" y2="393.16" xlink:href="#linear-gradient-7"/><linearGradient id="linear-gradient-9" x1="85.12" y1="297.58" x2="113.37" y2="341.24" xlink:href="#linear-gradient-2"/><linearGradient id="linear-gradient-10" x1="62.3" y1="361.96" x2="117.98" y2="361.96" xlink:href="#linear-gradient-2"/><linearGradient id="linear-gradient-11" x1="77.83" y1="336.04" x2="81.86" y2="336.04" xlink:href="#linear-gradient-2"/><linearGradient id="linear-gradient-12" x1="55.88" y1="54.61" x2="68.56" y2="54.61" xlink:href="#linear-gradient-2"/><linearGradient id="linear-gradient-13" x1="98.35" y1="336.04" x2="102.38" y2="336.04" xlink:href="#linear-gradient-2"/><linearGradient id="linear-gradient-14" x1="94.02" y1="329.42" x2="106.7" y2="329.42" xlink:href="#linear-gradient-2"/><linearGradient id="linear-gradient-15" x1="87.07" y1="353.65" x2="87.07" y2="327.74" gradientUnits="userSpaceOnUse"><stop offset="0" stop-color="#e8d5ba"/><stop offset="1" stop-color="#fff"/></linearGradient></defs><g class="cls-2"><g id="OBJECTS"><path class="cls-3" d="M90.14,274.8H88.69a71.07,71.07,0,0,0-71.07,71.06v1.45A71.79,71.79,0,0,0,89.41,419.1h1.45a71.79,71.79,0,0,0,71.79-71.79h0A72.52,72.52,0,0,0,90.14,274.8Z" transform="translate(-17.62 -274.8)"/><g class="cls-4"><path class="cls-5" d="M138,396.25c-2-2.08-11-4.09-17.75-5.34-1.32-.47-2.69-.89-4.09-1.26h0l-6.06-3.53-.18.08v-8.48c4.2-1.91,8-4.2,9.07-5.65,1.76-2.27,5.16-8.86,6.9-18.91l.18,0c3.3.45,6.39-3.06,6.88-7.84.43-4.17-1.24-7.93-3.87-9.13a37.92,37.92,0,0,0,.2-9.89,39.17,39.17,0,0,0-1.61-8.77,30.51,30.51,0,0,0-1.46-4c-6.33-14.84-22.07-26-46.18-13-4.74,2.55-5.79,6.14-5.46,9.39-7.2,2.53-8.5,18.61-7,26.35-2.58,1.23-4.23,5-3.8,9.09.5,4.78,3.58,8.29,6.89,7.84l.17,0c1.74,10,5.14,16.64,6.9,18.91,1.13,1.45,4.88,3.74,9.07,5.65v8.48l-.17-.08-6.06,3.53h0c-1.4.37-2.76.79-4.09,1.26-6.7,1.25-15.75,3.26-17.75,5.34-2.83,2.95-8.71,31.18-10.07,37.38H148.1C146.74,427.43,140.86,399.2,138,396.25Z" transform="translate(-17.62 -274.8)"/><rect class="cls-6" x="60.94" y="95.99" width="23.15" height="25.38"/><path class="cls-7" d="M101.71,370.79H78.56v5.53c4.12,1.87,8.66,3.38,11.58,3.38h0c2.91,0,7.45-1.51,11.57-3.38Z" transform="translate(-17.62 -274.8)"/><path class="cls-6" d="M124.74,341.11c.5-4.79-1.78-9-5.09-9.49s-6.39,3.06-6.89,7.85,1.79,9,5.1,9.48S124.25,345.89,124.74,341.11Z" transform="translate(-17.62 -274.8)"/><path class="cls-6" d="M55.53,341.11c-.49-4.79,1.79-9,5.09-9.49s6.39,3.06,6.89,7.85-1.79,9-5.09,9.48S56,345.89,55.53,341.11Z" transform="translate(-17.62 -274.8)"/><path class="cls-6" d="M90.14,297.64h0c-11.24,0-29,6.39-29,36.33,0,17.29,5.64,28.61,8.1,31.74,2.25,2.88,15,9,20.92,9h0c6,0,18.66-6.15,20.92-9,2.45-3.13,8.09-14.45,8.09-31.74C119.15,304,101.38,297.64,90.14,297.64Z" transform="translate(-17.62 -274.8)"/><path class="cls-8" d="M73.53,307s-8.35,8.54-4.59,19.4c.63,12.95-.62,17.33-4.8,20.88,1-12.53-.21-16.71-4.8-15.24C57.46,322.23,60,298.9,73.53,307Z" transform="translate(-17.62 -274.8)"/><path class="cls-9" d="M105.2,303.9s9.81,11.65,6,22.51c-.62,12.95.63,17.33,4.81,20.88-1-12.53.21-16.71,4.8-15.24C122.74,322.23,118.69,295.79,105.2,303.9Z" transform="translate(-17.62 -274.8)"/><path class="cls-10" d="M129.78,392c-3.25-3.39-25.26-6.6-25.26-6.6l-14.38,3.88L75.75,385.4s-22,3.21-25.26,6.6c-2.83,2.95-8.71,31.18-10.07,37.38h99.43C138.49,423.18,132.61,395,129.78,392Z" transform="translate(-17.62 -274.8)"/><polygon class="cls-11" points="72.51 113.01 57.87 110 72.51 154.58 87.16 110 72.51 113.01"/><polygon class="cls-12" points="76.46 117.08 72.51 113.01 68.56 117.08 71.23 119.83 68.9 149.16 72.51 154.58 76.12 149.16 73.8 119.83 76.46 117.08"/><path class="cls-13" d="M79.58,404.05,67.93,386.77a55.9,55.9,0,0,1,10.21-2.61l12,45.22L73.31,405.29Z" transform="translate(-17.62 -274.8)"/><path class="cls-14" d="M100.7,404.05l11.65-17.28a55.9,55.9,0,0,0-10.21-2.61l-12,45.22L107,405.29Z" transform="translate(-17.62 -274.8)"/><polygon class="cls-15" points="72.51 113.01 84.26 107.06 90.32 110.59 77.74 120.65 72.51 113.01"/><polygon class="cls-15" points="72.51 113.01 60.76 107.06 54.7 110.59 67.07 120.65 72.51 113.01"/><path class="cls-16" d="M121.14,323.34c-.65-19.82-17.85-44-49.32-27.06-10.9,5.87-2.28,17.27-2.28,17.27s3.69-8.64,20.64-4.65c8.44-1.85,16.66-3.22,20.45,4.58A19.21,19.21,0,0,0,121.14,323.34Z" transform="translate(-17.62 -274.8)"/><path class="cls-17" d="M106.54,361.91s-.08-4.72-16.4-4.72c-16.55,0-16.41,4.72-16.41,4.72-6.29,0-10.24-11-11.43-14.83,1.62,11.08,5.33,18.33,7.19,20.74,2.23,2.88,14.76,9,20.65,9h0c5.88,0,18.41-6.15,20.64-9,1.86-2.41,5.58-9.67,7.2-20.75C116.79,350.91,112.84,361.91,106.54,361.91Z" transform="translate(-17.62 -274.8)"/><path class="cls-15" d="M90.14,367.46c3.51,0,6.35-2,6.35-4.56H83.78C83.78,365.42,86.63,367.46,90.14,367.46Z" transform="translate(-17.62 -274.8)"/><path class="cls-18" d="M81.86,336c0,1.61-.9,2.92-2,2.92s-2-1.31-2-2.92.9-2.93,2-2.93S81.86,334.42,81.86,336Z" transform="translate(-17.62 -274.8)"/><ellipse class="cls-19" cx="62.22" cy="54.61" rx="6.34" ry="0.73"/><path class="cls-20" d="M98.35,336c0,1.61.9,2.92,2,2.92s2-1.31,2-2.92-.91-2.93-2-2.93S98.35,334.42,98.35,336Z" transform="translate(-17.62 -274.8)"/><path class="cls-21" d="M94,329.42c0,.4,2.84.73,6.34.73s6.34-.33,6.34-.73-2.84-.74-6.34-.74S94,329,94,329.42Z" transform="translate(-17.62 -274.8)"/><path class="cls-22" d="M89.47,339s-2,6.83-5.11,10.72a7.88,7.88,0,0,0,5.41,1.87,13.92,13.92,0,0,1-3.27-1.91C87.21,348,89.47,344,89.47,339Z" transform="translate(-17.62 -274.8)"/></g></g></g></svg>